<?xml version="1.0" encoding="utf-8"?>

<svg xmlns:dc="http://purl.org/dc/elements/1.1/" version="1.1" id="Layer_1" xmlns="http://www.w3.org/2000/svg" xmlns:xlink="http://www.w3.org/1999/xlink" x="0px" y="0px"
	 viewBox="0 0 24 24" style="enable-background:new 0 0 24 24;" xml:space="preserve">
<metadata>
    <dc:creator>Davooda</dc:creator>
    <dc:relation>https://davooda.com</dc:relation>
</metadata>

<style type="text/css">
	.st0{fill:none;stroke:#b7b1ba;stroke-width:2;stroke-linecap:round;stroke-linejoin:round;stroke-miterlimit:10;}
	.st1{fill:none;stroke:#b7b1ba;stroke-width:1.7;stroke-linecap:round;stroke-linejoin:round;stroke-miterlimit:10;}
	.st2{fill:none;stroke:#b7b1ba;stroke-width:1.8;stroke-linecap:round;stroke-linejoin:round;stroke-miterlimit:10;}
	.st3{fill:#b7b1ba;}
	.st4{fill:#FFFFFF;stroke:#b7b1ba;stroke-width:2;stroke-linecap:round;stroke-linejoin:round;stroke-miterlimit:10;}
	.st5{fill:none;stroke:#b7b1ba;stroke-width:1.6;stroke-linecap:round;stroke-linejoin:round;stroke-miterlimit:10;}
	.st6{fill:none;stroke:#b7b1ba;stroke-width:2;stroke-linecap:round;stroke-linejoin:round;stroke-miterlimit:10;}
	.st7{fill:#b7b1ba;}
	.st8{fill:none;stroke:#b7b1ba;stroke-width:1.8;stroke-linecap:round;stroke-linejoin:round;stroke-miterlimit:10;}
</style>
<path class="st0" d="M15.6,23c-0.5-3.4-1.9-6.5-7-7c5.1-0.5,6.5-3.6,7-7c0.5,3.4,1.9,6.5,7,7C17.4,16.5,16,19.6,15.6,23z"/>
<path class="st2" d="M7.1,12C6.7,9.3,5.6,6.9,1.6,6.5c4-0.4,5.1-2.8,5.5-5.5c0.4,2.7,1.5,5.1,5.5,5.5C8.5,6.9,7.4,9.3,7.1,12z"/>
<path class="st2" d="M19,6c-0.1-1-0.5-1.9-2-2c1.5-0.1,1.9-1,2-2c0.1,1,0.5,1.9,2,2C19.5,4.1,19.1,5,19,6z"/>
</svg>
