<svg xmlns="http://www.w3.org/2000/svg" xmlns:xlink="http://www.w3.org/1999/xlink" id="Layer_1" x="0" y="0" version="1.1" viewBox="0 0 24 24" style="enable-background:new 0 0 24 24" xml:space="preserve"><metadata/><style type="text/css">.st0,.st2{fill:none;stroke:#b7b1ba;stroke-width:2;stroke-linecap:round;stroke-linejoin:round;stroke-miterlimit:10}.st2{stroke-width:1.8}</style><path d="M15.6,23c-0.5-3.4-1.9-6.5-7-7c5.1-0.5,6.5-3.6,7-7c0.5,3.4,1.9,6.5,7,7C17.4,16.5,16,19.6,15.6,23z" class="st0"/><path d="M7.1,12C6.7,9.3,5.6,6.9,1.6,6.5c4-0.4,5.1-2.8,5.5-5.5c0.4,2.7,1.5,5.1,5.5,5.5C8.5,6.9,7.4,9.3,7.1,12z" class="st2"/><path d="M19,6c-0.1-1-0.5-1.9-2-2c1.5-0.1,1.9-1,2-2c0.1,1,0.5,1.9,2,2C19.5,4.1,19.1,5,19,6z" class="st2"/></svg>