<svg xmlns="http://www.w3.org/2000/svg" width="157" height="153" fill="none" viewBox="0 0 157 153"><g filter="url(#filter0_d_348_2083)"><path fill="url(#paint0_radial_348_2083)" d="M80.147 116.187C76.9659 116.242 74.2941 114.024 73.7601 110.83C68.565 82.3883 64.4304 78.4873 35.9769 75.8603C32.6963 75.5325 30.1019 72.9291 30.0134 69.8553C29.9236 66.7391 32.3239 64.1349 35.5798 63.6089C63.6574 59.3233 67.0518 55.9333 71.3566 27.3704C71.8401 24.2015 74.2931 21.8954 77.43 21.8413C80.6553 21.7857 83.2828 24.0041 83.905 27.1967C89.0107 55.5972 93.1453 59.4979 121.555 62.126C124.925 62.4949 127.473 65.0137 127.564 68.1727C127.652 71.2464 125.34 73.849 121.996 74.3766C93.8766 78.7484 90.5252 82.0949 86.3085 110.656C85.7381 113.869 83.2396 116.133 80.147 116.187Z"/></g><defs><filter id="filter0_d_348_2083" width="155.864" height="152.657" x=".857" y=".276" color-interpolation-filters="sRGB" filterUnits="userSpaceOnUse"><feFlood flood-opacity="0" result="BackgroundImageFix"/><feColorMatrix in="SourceAlpha" result="hardAlpha" type="matrix" values="0 0 0 0 0 0 0 0 0 0 0 0 0 0 0 0 0 0 127 0"/><feOffset dy="7.59"/><feGaussianBlur stdDeviation="14.577"/><feComposite in2="hardAlpha" operator="out"/><feColorMatrix type="matrix" values="0 0 0 0 0.220722 0 0 0 0 0.210451 0 0 0 0 0.241667 0 0 0 0.28 0"/><feBlend in2="BackgroundImageFix" mode="normal" result="effect1_dropShadow_348_2083"/><feBlend in="SourceGraphic" in2="effect1_dropShadow_348_2083" mode="normal" result="shape"/></filter><radialGradient id="paint0_radial_348_2083" cx="0" cy="0" r="1" gradientTransform="translate(112.564 99.8956) rotate(-154.62) scale(70.8317 70.5469)" gradientUnits="userSpaceOnUse"><stop stop-color="#DABFFF"/><stop offset=".063" stop-color="#FEFDFF"/><stop offset="1" stop-color="#874FFF"/></radialGradient></defs></svg>